<?xml version="1.0" encoding="utf-8"?>
<!-- Generator: Adobe Illustrator 26.2.1, SVG Export Plug-In . SVG Version: 6.00 Build 0)  -->
<svg version="1.1" id="레이어_1" xmlns="http://www.w3.org/2000/svg" xmlns:xlink="http://www.w3.org/1999/xlink" x="0px"
	 y="0px" viewBox="0 0 234.9 252.2" style="enable-background:new 0 0 234.9 252.2;" xml:space="preserve">
<style type="text/css">
	.st0{opacity:0.42;fill:#E6E6E6;}
	.st1{fill:#919191;}
	.st2{fill:#F7F7F7;}
	.st3{fill:#E6E6E6;}
	.st4{fill:#CCCCCC;}
	.st5{fill:#363636;}
	.st6{fill:#3D3D3D;}
	.st7{fill:#545454;}
	.st8{fill:#949494;}
	.st9{fill:#F5BC00;}
	.st10{fill:#333333;}
	.st11{fill:#636363;}
	.st12{fill:#9C8863;}
	.st13{fill:#ABABAB;}
	.st14{fill:#DBDBDB;}
	.st15{fill:#424242;}
	.st16{fill:#225E82;}
	.st17{fill:#EBEBEB;}
	.st18{fill:#C9C9C9;}
	.st19{fill:#F0C7AD;}
	.st20{fill:#FFFFFF;}
	.st21{fill:#1A4A66;}
	.st22{fill:#930000;}
	.st23{fill:#787878;}
	.st24{fill:#EDEDED;}
	.st25{fill:#6B6B6B;}
	.st26{fill:#898989;}
</style>
<g id="그룹_1472" transform="translate(-3720.378 -838.283)">
	<g id="그룹_1471" transform="translate(3720.378 838.283)">
		<path class="st0" d="M89.5,219.2l-6.7-3.9c0.6-2.5-0.5-5-3.4-6.9c-3.4-2.3-8.4-3.2-13.4-2.8l-2.4-1.4l-26.1,15l2.6,1.5
			c-8.3,5.4-17,8.6-32.6,13.1c-1.4,0.4-2.8,0.9-4.1,1.6c-0.4,0.2-0.7,0.4-1,0.6c-7.8,8.4,4.8,21.5,18.4,14c0.9-0.3,1.8-0.7,2.7-1.1
			c0.6-0.3,1.1-0.6,1.6-0.9c0.6-0.4,1.1-0.8,1.6-1.3c4.1-3.6,8.4-7,12.9-10.1c4.6-3,9.2-5.4,15-7.6l8.9,5.2L89.5,219.2z"/>
		<g id="그룹_1448" transform="translate(46.762 21.936)">
			<g id="그룹_1417" transform="translate(32.503 93.504)">
				<path id="패스_4576" class="st0" d="M0,77.6l21.5-12.4l21.4,12.4L21.4,90L0,77.6z"/>
				<path id="패스_4577" class="st0" d="M37.6,55.9l21.5-12.4l21.4,12.4L59,68.3L37.6,55.9z"/>
				<path id="패스_4578" class="st0" d="M75.2,34.1l21.5-12.4l21.4,12.4L96.6,46.6L75.2,34.1z"/>
				<path id="패스_4579" class="st0" d="M112.7,12.4L134.2,0l21.4,12.4l-21.5,12.4L112.7,12.4z"/>
			</g>
			<g id="그룹_1447">
				<g id="그룹_1446">
					<g id="그룹_1445">
						<g id="그룹_1444">
							<g id="그룹_1443">
								<g id="그룹_1422" transform="translate(0 173.858)">
									<g id="그룹_1421">
										<g id="그룹_1418" transform="translate(0 9.432)">
											<path id="패스_4580" class="st1" d="M16.3,18.3L0.1,8.9L0,0l16.2,9.4L16.3,18.3z"/>
										</g>
										<g id="그룹_1419">
											<path id="패스_4581" class="st2" d="M16.2,18.9L0,9.4L16.3,0l16.2,9.4L16.2,18.9z"/>
										</g>
										<g id="그룹_1420" transform="translate(16.229 9.431)">
											<path id="패스_4582" class="st3" d="M16.3,0l0.1,8.9L0.1,18.3L0,9.4L16.3,0z"/>
										</g>
									</g>
								</g>
								<g id="그룹_1427" transform="translate(37.591 118.624)">
									<g id="그룹_1426">
										<g id="그룹_1423" transform="translate(0 9.432)">
											<path id="패스_4583" class="st1" d="M16.4,51.8L0.2,42.4L0,0l16.2,9.4L16.4,51.8z"/>
										</g>
										<g id="그룹_1424">
											<path id="패스_4584" class="st2" d="M16.2,18.9L0,9.4L16.3,0l16.2,9.4L16.2,18.9z"/>
										</g>
										<g id="그룹_1425" transform="translate(16.229 9.431)">
											<path id="패스_4585" class="st3" d="M16.3,0l0.2,42.4L0.2,51.8L0,9.4L16.3,0z"/>
										</g>
									</g>
								</g>
								<g id="그룹_1432" transform="translate(75.183 83.488)">
									<g id="그룹_1431">
										<g id="그룹_1428" transform="translate(0 9.432)">
											<path id="패스_4586" class="st1" d="M16.4,65.3L0.2,55.8L0,0l16.2,9.4L16.4,65.3z"/>
										</g>
										<g id="그룹_1429">
											<path id="패스_4587" class="st2" d="M16.2,18.9L0,9.4L16.3,0l16.2,9.4L16.2,18.9z"/>
										</g>
										<g id="그룹_1430" transform="translate(16.229 9.431)">
											<path id="패스_4588" class="st3" d="M16.3,0l0.2,55.8L0.2,65.3L0,9.4L16.3,0z"/>
										</g>
									</g>
								</g>
								<g id="그룹_1437" transform="translate(112.774 48.357)">
									<g id="그룹_1436">
										<g id="그룹_1433" transform="translate(0 9.432)">
											<path id="패스_4589" class="st1" d="M16.5,78.7L0.2,69.2L0,0l16.2,9.4L16.5,78.7z"/>
										</g>
										<g id="그룹_1434">
											<path id="패스_4590" class="st2" d="M16.2,18.9L0,9.4L16.3,0l16.2,9.4L16.2,18.9z"/>
										</g>
										<g id="그룹_1435" transform="translate(16.229 9.431)">
											<path id="패스_4591" class="st3" d="M16.3,0l0.2,69.2L0.2,78.7L0,9.4L16.3,0z"/>
										</g>
									</g>
								</g>
								<g id="그룹_1442" transform="translate(150.366)">
									<g id="그룹_1441">
										<g id="그룹_1438" transform="translate(0 9.432)">
											<path id="패스_4592" class="st1" d="M16.5,105.3L0.3,95.9L0,0l16.2,9.4L16.5,105.3z"/>
										</g>
										<g id="그룹_1439">
											<path id="패스_4593" class="st2" d="M16.2,18.9L0,9.4L16.3,0l16.2,9.4L16.2,18.9z"/>
										</g>
										<g id="그룹_1440" transform="translate(16.229 9.431)">
											<path id="패스_4594" class="st3" d="M16.3,0l0.3,95.9l-16.3,9.4L0,9.4L16.3,0z"/>
										</g>
									</g>
								</g>
							</g>
						</g>
					</g>
				</g>
			</g>
		</g>
		<g id="그룹_1460" transform="translate(176.394 0)">
			<path id="패스_4595" class="st4" d="M50.4,28.1c-2.2-0.5-4.5,1-6.6,0.7c-4.1,4.8-9.9,7.8-16.2,8.5c0,1-0.1,1.9-0.2,2.9L25,40.8
				c0-0.3,0-0.6,0.1-1c0-0.8,0.2-1.7,0.4-2.5c-0.4,0-0.9-0.1-1.3-0.1c-1-0.1-2-0.4-2.9-0.7c-0.3,0.9-0.4,1.9-0.5,2.8
				c0,0.6-0.1,1.2-0.1,1.7l0.4,0.9c0.8,1.9,2.5,3.3,4.4,3.8c0,0,0,0,0,0c0.5,0.1,1.9,0.5,2.5,0.6c7.1,0.9,16.2-3.3,20.4-9.3
				C50,34.4,50.8,31.2,50.4,28.1z"/>
			<g id="그룹_1450" transform="translate(16.2 17.369)">
				<g id="그룹_1449">
					<path id="패스_4596" class="st5" d="M28.3,8.2c-4.3,6.1-13.8,10.4-21.1,9.5C3.4,17.3,1,15.7,0,13.4l3.9,9.2
						c1,2.3,3.4,3.9,7.1,4.4c7.3,0.8,16.8-3.4,21.1-9.5c2.2-3,2.6-5.9,1.7-8.2L29.9,0C30.9,2.3,30.4,5.2,28.3,8.2z"/>
				</g>
			</g>
			<path id="패스_4597" class="st4" d="M49.9,26.2l-2.7,9.4l-27.3,3.9l-3.7-8.8c1,2.3,3.4,3.9,7.1,4.4c7.3,0.8,16.8-3.4,21.1-9.5
				c2.2-3,2.6-5.9,1.7-8.2L49.9,26.2z"/>
			<g id="그룹_1455" transform="translate(2.956)">
				<g id="그룹_1454">
					<g id="그룹_1451" transform="translate(42.994)">
						<path id="패스_4598" class="st6" d="M8.8,0l1,2.3L1,33.4l-1-2.3L8.8,0z"/>
					</g>
					<g id="그룹_1452" transform="translate(0 31.09)">
						<path id="패스_4599" class="st7" d="M43,0l1,2.3L1,8.4L0,6.2L43,0z"/>
					</g>
					<g id="그룹_1453">
						<path id="패스_4600" class="st8" d="M51.8,0L43,31.1L0,37.2L8.8,6.2L51.8,0z"/>
					</g>
				</g>
			</g>
			<g id="그룹_1456" transform="translate(2.53 16.575)">
				<path id="패스_4601" class="st9" d="M0,36.6c0,0,0-16.1,0.1-16.2L25.6,0l0.3,0.4L0.5,20.7L0.4,36.6H0z"/>
			</g>
			<g id="그룹_1457" transform="translate(25.845 15.121)">
				<path id="패스_4602" class="st10" d="M3.5,0c1.1,0.1,1.5,1,0.8,1.9c-0.8,1-1.9,1.5-3.2,1.4C0,3.2-0.3,2.4,0.3,1.4
					C1.1,0.5,2.3-0.1,3.5,0z"/>
			</g>
			<g id="그룹_1458" transform="translate(27.476 15.353)">
				<path id="패스_4603" class="st11" d="M1.6,0c0.5,0.1,0.7,0.4,0.4,0.8C1.6,1.3,1.1,1.5,0.5,1.5C0,1.4-0.1,1.1,0.1,0.6
					C0.5,0.2,1,0,1.6,0z"/>
			</g>
			<g id="그룹_1459" transform="translate(0 51.333)">
				<path id="패스_4604" class="st9" d="M1.7,3.9C1.9,1.2,2,0,2.7,0s0.8,1.2,1.1,3.9s1.7,4.8,1.7,9.4c-1.6,1.3-3.9,1.3-5.5,0
					C0,9.4,1.4,6.7,1.7,3.9z"/>
				<path id="패스_4605" class="st12" d="M1.3,14.1c-0.1-2.2,0.6-7.3,0.9-10c0.1-1.2,0.2-2.4,0.3-3.6c0-0.2,0-0.3,0.1-0.5
					C2.2,0.1,2.1,0.5,2.1,0.8c-0.2,1-0.3,2.1-0.4,3.2C1.4,5.4,1.1,6.8,0.7,8.2C0.6,8.8,0.4,9.4,0.3,10C0.1,11.1,0,12.2,0,13.4
					l0.4,0.3C0.7,13.9,1,14,1.3,14.1z"/>
			</g>
		</g>
		<g id="그룹_1462" transform="translate(46.829 195.794)">
			<g>
				<defs>
					<polygon id="SVGID_1_" points="16.2,18.9 0,9.4 16.3,0 32.6,9.4 					"/>
				</defs>
				<clipPath id="SVGID_00000162350014310704000650000006239610988222207419_">
					<use xlink:href="#SVGID_1_"  style="overflow:visible;"/>
				</clipPath>
			</g>
		</g>
		<g id="그룹_1470" transform="translate(10.75 75.045)">
			<g id="그룹_1469">
				<path id="패스_4608" class="st13" d="M37.8,29.5l0-1.4c-0.8-0.8-2-1-3.1-0.7c-0.6,0.5-0.9,1.4-0.6,2.1L37.8,29.5z"/>
				<g id="그룹_1465" transform="translate(42.095 119.065)">
					<g id="그룹_1463" transform="translate(0.011 2.714)">
						<path id="패스_4609" class="st14" d="M15.9,0.6L15.8,0c0.2,0.5,0.2,1,0.1,1.4c-0.7,2.2-1.7,2.2-3.9,4.4
							c-3.8,3.9-6.7,8.2-10.6,6.5c-0.2-0.1-0.4-0.2-0.5-0.3c-0.4-0.2-0.7-0.5-0.8-1L0.6,13c0.2,0.4,0.5,0.8,0.9,1
							C1.7,14,1.8,14.1,2,14.2c2.4,1.2,5.1-0.8,7.5-3.3l-0.4-0.9c1-1,2.1-2.5,3.1-3.5C14.4,4.4,15.3,4.2,16,2
							C16.1,1.5,16.1,1,15.9,0.6z"/>
					</g>
					<g id="그룹_1464">
						<path id="패스_4610" class="st15" d="M13.7,0c1.2,0.1,2.6,2.9,2.2,4.1c-0.7,2.2-1.7,2.2-3.9,4.4c-3.8,3.9-6.7,8.2-10.6,6.5
							C1.2,15,1,15,0.8,14.9c-2.5-1.4,1-3.6,4.3-7.4C7.4,5,10.7-0.3,13.7,0z"/>
					</g>
				</g>
				<path id="패스_4611" class="st16" d="M16.7,77.2c-0.8,4.7,1,13.6,8.1,16.3c8.1,7.7,11.4,9.2,14.5,12.2c3.2,3,8.2-1.6,9-5.8
					C49,96,35.4,78.2,29.1,77.2C21.9,76.1,17.6,71.9,16.7,77.2z"/>
				<path id="패스_4612" class="st15" d="M43.6,132.8l-1.4,0.4c-0.3-0.7-0.5-1.4-0.5-2.2l1.5-0.3L43.6,132.8z"/>
				<path id="패스_4613" class="st16" d="M50.3,129.2c-1.3-15.6,0.5-24.5-1.9-30.4c-1.6-3.9-8.2,2.3-8.5,6.5c-0.9,9.3,0,4,1.9,26
					C42.9,134.3,49.2,133.3,50.3,129.2z"/>
				<path id="패스_4614" class="st17" d="M9.1,53.1c5.7-2.4,20.5-14.9,22.8-17.5c2-2.3-0.4-10-7.6-5.9C18.9,32.7,5.9,43.9,3,47.5
					C0.6,50.4,2.7,55.8,9.1,53.1z"/>
				<path id="패스_4615" class="st18" d="M0,61c0,2,0.6,3.9,0.7,5.8c0.2,2.3,5,2.8,7.1,1.2c0.2-1.9,0.8-3.9,1-6
					C7,59.2,0.8,59.9,0,61z"/>
				<path id="패스_4616" class="st19" d="M1.4,55.4c-0.3,7.4,0.3,17.5,0.4,18.9c0.2,2.1,4.1,3.6,4.5,0c0.3-2.4,2.2-16,2.5-21.2
					L1.4,55.4z"/>
				<path id="패스_4617" class="st17" d="M2.6,48.1c-1.2,1.8-1.3,9.5-1.2,16.1l6.7,1C8.7,59.8,9.7,53.9,9.7,52
					C9.6,47.8,5,44.4,2.6,48.1z"/>
				<path id="패스_4618" class="st20" d="M0,61c0.1,2,0.3,3.9,0.7,5.8c1.3-1.3,6-0.4,7.1,1.2c0.2-1.9,0.8-3.9,1-6
					C7,59.2,0.8,59.9,0,61z"/>
				<path id="패스_4619" class="st21" d="M24.9,75.6c-3.2,2.5-3.3,11.5,0.1,18.2c-1.4,10.9-1.7,24.2-2.1,28.3
					c-0.4,4.3,7.8,5.5,11.2,2.7c2.2-1.8,11.1-41.2,8.1-46.7C38.7,71.6,29.2,72.3,24.9,75.6z"/>
				<path id="패스_4620" class="st21" d="M10.5,147.3c12.2-9.6,18.5-14.9,24-22.6c2.4-3.4-6-9.2-9.5-7c-5.4,3.3-7.9,8.1-20.3,19.1
					C3.8,139.4,6.3,147.1,10.5,147.3z"/>
				<path id="패스_4621" class="st15" d="M10,160.2c-1,1-4.5-2.3-4.5-2.3l-2-21.1c2.6-2.3,6.5-1.3,7.2,6c-0.4,1.7-0.7,1.9-0.4,4.1
					C11,152.5,12.8,157.4,10,160.2z"/>
				<path id="패스_4622" class="st22" d="M44.2,84.5c-4.4,2.6-25.4,0.6-27.8-7.6c0.5-3.4,4.5-6.2,5.9-16.6
					c2-14.4,0.2-29.2,2.9-30.9c6.5-4.2,27.9,3.3,30.7,6.7c1.4,1.7-5.6,10.3-8.8,24.5C44.6,72,44.5,83.7,44.2,84.5z"/>
				<path id="패스_4623" class="st23" d="M74.9,44.5c-1.1,1.6-2,3.3-2.9,5.1c-0.5,2.7,6.1,5.6,8,3.6c0.6-1.9,1-3.8,1.3-5.8
					C80.5,45.6,75.8,44,74.9,44.5z"/>
				<path id="패스_4624" class="st19" d="M77.9,39.6c-0.7,2.2-5,10.6-6.9,15.2h7.2c2-5.8,3.7-12.6,4-13.9
					C82.6,38.8,79,36.1,77.9,39.6z"/>
				<path id="패스_4625" class="st20" d="M75,45.2c-2,4.2-5.5,8.9-6.1,11c-1.2,4,3,9.4,5.2,7.6c1.9-1.5,4.8-9.6,6.5-15.6
					C79.5,47.7,75.6,45.6,75,45.2z"/>
				<path id="패스_4626" class="st24" d="M74.9,44.5c-1.1,1.6-2,3.3-2.9,5.1c1.7-1.5,7.9,1.3,8,3.6c0.6-1.9,1-3.8,1.3-5.8
					C80.5,45.6,75.8,44,74.9,44.5z"/>
				<path id="패스_4627" class="st20" d="M73.8,57.2c-3-5.4-15.7-19.6-18.4-21.5c-2.5-1.8-9.7,5.7-4.9,12.4
					c3.6,5,14.6,14.2,18.5,16.8C72.1,66.8,77.1,63.3,73.8,57.2z"/>
				<path id="패스_4628" class="st19" d="M77.3,29.5c-0.6,0.5-1.6,2.5-0.9,3.1c1.5,1.3,0.6,3.2,1.5,4.2c0.9,0.9,0,3.1,0,3.1
					l4.3,1.3c0.4-1.2,0.9-2.4,1.5-3.5c0.8-1.4,0.5-5.3-0.1-6.1C82.5,30.3,77.9,29.1,77.3,29.5z"/>
				<path id="패스_4629" class="st19" d="M75.1,31.3c-0.1-0.1,0-0.3,0.1-0.4c0,0,0,0,0,0c0.6-0.2,1.2,0.1,1.4,0.6c0,0,0,0.1,0,0.1
					c0.3,0.7,0.7,2,1.8,2.2l-0.3,2.9c0,0-1.4-1.5-1.7-1.8C75.8,34.3,75.3,31.8,75.1,31.3z"/>
				<path id="패스_4630" class="st19" d="M9.8,84.1c0.4-0.6,0.8-2.9,0-3.2c-1.8-0.8-1.5-2.9-2.6-3.6c-1.1-0.6-0.9-3-0.9-3l-4.5,0
					c0,1.3-0.1,2.5-0.4,3.8c-0.4,1.5,1.1,5.2,1.9,5.8C4.7,84.8,9.4,84.6,9.8,84.1z"/>
				<path id="패스_4631" class="st19" d="M11.5,81.7c0.1,0.1,0.1,0.3,0,0.4c0,0,0,0,0,0c-0.5,0.4-1.2,0.3-1.5-0.2
					c0,0-0.1-0.1-0.1-0.1c-0.5-0.6-1.2-1.7-2.3-1.6l-0.6-2.9c0,0,1.8,1,2.2,1.2C9.8,79,11.1,81.3,11.5,81.7z"/>
				<g id="그룹_1466" transform="translate(1.263 137.353)">
					<path id="패스_4632" class="st25" d="M3.2,0.5C5.9,2.1,5.4,4.9,5.9,10c0.3,3.3,2.1,7.5,2.4,9.6c0.2,1.4,0.3,4.5-1.5,4.1
						c-0.3-0.1-0.6-0.2-0.8-0.3c-2-1.3-3.7-3.2-4.8-5.3c-1.1-2.9-0.7-4.2-0.8-7.2C0.2,5.5-1.1-1.4,2.7,0.3C2.9,0.4,3.1,0.4,3.2,0.5z
						"/>
				</g>
				<path id="패스_4633" class="st14" d="M10.3,156.5c-0.3-2.1-2.1-6.3-2.4-9.6c-0.4-5.1,0.1-7.9-2.6-9.5
					c-0.2-0.1-0.3-0.2-0.5-0.3c-0.5-0.3-1.1-0.3-1.7-0.1l-0.8,0.5c0,0,0,0,0,0l-1.2,0.8c0.5-0.2,1.2-0.2,1.7,0.1
					c0.2,0.1,0.4,0.2,0.5,0.3c2.7,1.5,2.2,4.3,2.6,9.5l1.2-0.7l0,0c0.3,3.3,2.1,7.5,2.4,9.6c0.2,1.1,0.3,3.4-0.7,4l0.8-0.5
					C10.6,159.9,10.5,157.6,10.3,156.5z"/>
				<g id="그룹_1467" transform="translate(0.041 138.095)">
					<path id="패스_4634" class="st26" d="M5.9,10L5.9,10C5.4,4.9,5.9,2.1,3.2,0.5C3.1,0.4,2.9,0.4,2.7,0.3
						C-0.1-1-0.1,2.6,0.1,6.7L5.9,10z"/>
				</g>
				<g id="그룹_1468" transform="translate(31.966)">
					<path id="패스_4635" class="st19" d="M4.3,28.5c-0.7,5.5,8.3,6.5,10.6,3l0.7-10.2l-10.6-1L4.3,28.5z"/>
					<path id="패스_4636" class="st19" d="M3.4,14.8c0,3.2,1.3,7.3,3.1,9.2C9.3,27,17.7,29.6,20,27.4c2.7-2.6,2.5-9.4,2.4-14.1
						c-0.2-7.1-3.9-13-11.7-12.1C5.4,1.8,3.5,7.7,3.4,14.8z"/>
					<path id="패스_4637" class="st15" d="M0.8,5.1C0.4,5.6,0.1,6.2,0,6.8c0-1.2,0.5-2.3,1.4-3C1.8,2.4,3,0.4,4.9,0.1
						c-0.9,0.4-1.6,1.1-2,2c0.6-0.5,1.3-0.9,2-1.2c4.2-1.4,8.8-1.1,12.8,0.7c0.4,0.1,0.8,0.2,1.2,0.3l0.5,0.1l2.4,0.6
						c-0.4,0-0.8,0-1.3,0c0.2,0.1,0.4,0.2,0.5,0.3l2.1,1.2c-0.5-0.1-1.1-0.2-1.6-0.4c0.5,0.3,0.9,0.7,1.3,1.1l1.9,1.6
						c-0.8-0.4-1.6-0.8-2.4-1.3c0.6,0.6,1.1,1.4,1.5,2.2l1,1.7c-0.6-0.4-1.2-0.9-1.6-1.5c0.5,1.3,0.5,2.7-0.1,4l-1.4,1.4
						c0.3-0.7,0.3-1.6-0.1-2.3c-0.2,1.1-2,1.7-2.1,1.9c-0.3,0.5-1.2,4.1-1.7,5c-0.4,0.1-0.8,0.2-1.2,0.2c-0.2,0,0-3.7-0.6-4.5
						c-0.4-0.6-1.3-0.8-2-0.4c0,0,0,0,0,0c-0.6,0.4-0.7,1.5-0.7,2.7c0.1,2.3-1.5,5.7-3,6.4c-2.6,1.3-4.9,1-5.7,1.8
						C2.2,22.7-0.7,9.2,0.8,5.1z"/>
				</g>
				<path id="패스_4638" class="st20" d="M33.8,31.5c-0.5-1.1,0-3.5,1-4.1c2.1,3,16,2.4,17.5,6.2C52.7,34.8,35.3,35,33.8,31.5z"/>
			</g>
		</g>
	</g>
</g>
</svg>
