<?xml version="1.0" encoding="utf-8"?>
<!-- Generator: Adobe Illustrator 26.2.1, SVG Export Plug-In . SVG Version: 6.00 Build 0)  -->
<svg version="1.1" id="레이어_1" xmlns="http://www.w3.org/2000/svg" xmlns:xlink="http://www.w3.org/1999/xlink" x="0px"
	 y="0px" viewBox="0 0 60 18" style="enable-background:new 0 0 60 18;" xml:space="preserve">
<style type="text/css">
	.st0{fill:#FFD74C;}
	.st1{fill:#A25EB5;}
	.st2{fill:#E17A76;}
	.st3{fill:#6BB8D2;}
	.st4{enable-background:new    ;}
	.st5{fill:#333333;}
</style>
<g id="그룹_917" transform="translate(-175.001 -358)">
	<g id="그룹_912" transform="translate(-135.999 -9)">
		<g id="그룹_911" transform="translate(311 368)">
			<g id="패스_4634">
				<path class="st0" d="M2.3,2.9L2.3,2.9C1.4,4.4,1.4,6.3,2.1,7.9c0.7,1.6,1.9,2.8,3.5,3.5c0.7,0.3,1.4,0.5,2.2,0.5l0,0
					c0.2,0,0.3,0,0.5,0c0.7,0,1.4-0.2,2.1-0.5c-1.2,1.5-3.1,2.2-5,2.1c-0.7,0-1.4-0.2-2-0.4c-1.5-0.7-2.7-2-3.3-3.5C0.1,9,0,8.5,0,8
					c0-2.2,1-4.4,2.7-5.8C2.5,2.4,2.4,2.6,2.3,2.9"/>
			</g>
			<g id="패스_4635">
				<path class="st1" d="M14.1,12.3c0.6-2,0.2-4.2-1.1-5.9c-0.6-0.7-1.2-1.2-2-1.6c-0.8-0.4-1.7-0.7-2.6-0.7C8.2,4,7.9,4,7.7,4
					C7.1,4,6.6,4.1,6.1,4.3C6.2,4,6.4,3.7,6.6,3.4C7.6,2,9,1,10.6,0.5C13.8,1.6,15.9,4.6,16,8c0,2.1-0.9,4.1-2.4,5.6
					C13.8,13.1,14,12.7,14.1,12.3"/>
			</g>
			<g id="패스_4636">
				<path class="st2" d="M8,16c-2.2,0-4.2-0.9-5.7-2.5c0.2,0.1,0.5,0.3,0.7,0.4c0.7,0.3,1.4,0.5,2.2,0.5h0.1c2.2,0.1,4.4-1,5.5-2.9
					c0.5-0.9,0.9-1.9,1-2.9c0.1-0.3,0.1-0.6,0.1-0.9c0-0.8-0.2-1.5-0.6-2.1c0.1,0.1,0.3,0.2,0.4,0.3c0.1,0.1,0.3,0.3,0.4,0.4
					c0.3,0.4,0.6,0.8,0.8,1.2c1.4,2.8,0.4,6.2-2.3,7.8c-0.3,0.2-0.7,0.3-1,0.5C9.1,15.9,8.6,16,8,16"/>
			</g>
			<g id="패스_4637">
				<path class="st3" d="M6.5,3C6,3.8,5.7,4.5,5.4,5.4c-1.3,1.3-1.6,3.4-0.7,5C3.9,9.7,3.3,8.9,2.9,7.9C2.3,6.4,2.3,4.7,3.1,3.3
					c0.7-1.4,1.9-2.5,3.3-3.1C7,0.1,7.7,0,8.3,0c0.5,0,1,0,1.5,0.1C8.5,0.8,7.3,1.8,6.5,3"/>
			</g>
		</g>
	</g>
	<g class="st4">
		<path class="st5" d="M202.6,366.4c-0.7,0.1-1.3,0.1-2,0.1c-0.7,0-1.3,0-1.9,0.1c-0.6,0-1.2,0-1.8,0l-0.1-1h1.6v-3.4h-1.2v-0.9h6.7
			v0.9h-1.2v3.2c0.3,0,0.6,0,0.9-0.1s0.6-0.1,0.9-0.1l0.1,0.8C203.9,366.2,203.2,366.3,202.6,366.4z M206.9,372.9h-8.4v-3.1h6.8
			v-1.3h-6.8v-0.9h8v3h-6.8v1.4h7.3V372.9z M200.5,365.6c0.3,0,0.7,0,1,0v-3.3h-2v3.4C199.8,365.6,200.1,365.6,200.5,365.6z
			 M206.5,364.2v2.8h-1.1v-6.5h1.1v2.8h1.9v1H206.5z"/>
		<path class="st5" d="M213.3,368.9c0.7,0,1.5-0.1,2.3-0.3l0.1,0.9c-0.4,0.1-0.9,0.1-1.3,0.2s-0.8,0.1-1.2,0.1c-0.4,0-0.8,0-1.2,0.1
			c-0.4,0-0.8,0-1.2,0H210v-4.6h3.4v-2.5H210v-0.9h4.5v4.4h-3.4v2.8C211.9,369,212.6,369,213.3,368.9z M217.7,372.4h-1.1v-6.4h-1.6
			v-1h1.6v-4.2h1.1V372.4z M219.2,373v-12.6h1.1V373H219.2z"/>
		<path class="st5" d="M222.5,371.4v-0.9h11.4v0.9H222.5z M224,361.6h8.5v0.9h-7.3v1.9h7.1v0.9h-7.1v2h7.5v0.9H224V361.6z"/>
	</g>
</g>
</svg>
