<svg xmlns="http://www.w3.org/2000/svg" width="73" height="18" viewBox="0 0 73 18">
  <g id="그룹_915" data-name="그룹 915" transform="translate(-175 -294)">
    <text id="캠스터디" transform="translate(196 308)" fill="#333" font-size="14" font-family="SpoqaR"><tspan x="0" y="0">캠스터디</tspan></text>
    <g id="그룹_910" data-name="그룹 910" transform="translate(-315.919 -340.402)">
      <g id="그룹_909" data-name="그룹 909" transform="translate(490.919 635.402)">
        <g id="그룹_907" data-name="그룹 907" transform="translate(5.852 5.852)">
          <path id="패스_4632" data-name="패스 4632" d="M507.635,649.1c0,.01,0,.019,0,.029a.956.956,0,1,1-1.458-.809c-.069-.007-.14-.011-.211-.011a2.15,2.15,0,1,0,1.665.792Z" transform="translate(-503.822 -648.305)" fill="#411d63"/>
        </g>
        <g id="그룹_908" data-name="그룹 908">
          <path id="패스_4633" data-name="패스 4633" d="M498.919,635.4a8,8,0,0,0-6.788,3.774.425.425,0,0,0-.1.165,8,8,0,1,0,6.888-3.939Zm0,.852a7.3,7.3,0,0,1,.814.047,8.572,8.572,0,0,0-4.287,5.286,3.866,3.866,0,0,0-.346,2.694,8.553,8.553,0,0,1-2.217-4.7A7.149,7.149,0,0,1,498.919,636.254Zm2.787,7.149a2.787,2.787,0,1,1-2.787-2.787A2.79,2.79,0,0,1,501.706,643.4Zm-9.936,0a7.113,7.113,0,0,1,.491-2.6,8.63,8.63,0,0,0,3.916,5.4,3.885,3.885,0,0,0,3.456,1.055A8.505,8.505,0,0,1,494.476,649,7.137,7.137,0,0,1,491.77,643.4Zm7.149,7.149a7.1,7.1,0,0,1-3.253-.786,8.451,8.451,0,0,0,6.305-3.9,3.891,3.891,0,0,0,.495-4.121,8.549,8.549,0,0,1,2.991,4.549A7.158,7.158,0,0,1,498.919,650.551Zm6.977-5.6a8.484,8.484,0,0,0-5.394-5.137,3.9,3.9,0,0,0-3.455.141,8.49,8.49,0,0,1,4.044-3.366,7.141,7.141,0,0,1,4.805,8.363Z" transform="translate(-490.919 -635.402)" fill="#411d63"/>
        </g>
      </g>
    </g>
  </g>
</svg>
