<svg xmlns="http://www.w3.org/2000/svg" xmlns:xlink="http://www.w3.org/1999/xlink" width="143.999" height="18" viewBox="0 0 143.999 18">
  <defs>
    <style>
      .cls-1 {
        fill: #f1592a;
      }

      .cls-2 {
        clip-path: url(#clip-path);
      }

      .cls-3 {
        fill: #333;
        font-size: 14px;
        font-family: 'SpoqaR','Malgun Gothic','맑은고딕','malgun gothic','helvetica','Apple SD Gothic Neo', '돋움',dotum,sans-serif;
      }
    </style>
    <clipPath id="clip-path">
      <rect id="사각형_1056" data-name="사각형 1056" class="cls-1" width="16" height="16.002"/>
    </clipPath>
  </defs>
  <g id="그룹_913" data-name="그룹 913" transform="translate(-175.001 -230)">
    <g id="그룹_891" data-name="그룹 891" class="cls-2" transform="translate(175.001 231)">
      <path id="패스_4603" data-name="패스 4603" class="cls-1" d="M8,0A7.769,7.769,0,0,0,6.234.2l-.05,0a.052.052,0,0,0-.027.01.048.048,0,0,1-.018,0A8,8,0,0,0,8,16a8.237,8.237,0,0,0,1.716-.186A8,8,0,0,0,8,0m.013,10.775A2.778,2.778,0,1,1,10.791,8a2.781,2.781,0,0,1-2.779,2.776m-1.6-7.37a7.966,7.966,0,0,0-.977,2.015,3.64,3.64,0,0,0-.726,4.116,5.408,5.408,0,0,1-1.327-1.9,4.619,4.619,0,0,1,.137-3.942A5.055,5.055,0,0,1,6.353,1.066,7.153,7.153,0,0,1,8,.873,7.55,7.55,0,0,1,9.135.962,7.258,7.258,0,0,0,6.41,3.405M2.735,3.3v0a5.469,5.469,0,0,0-.154,4.67A5.847,5.847,0,0,0,5.658,11.17a5.322,5.322,0,0,0,1.906.445h0a3.773,3.773,0,0,0,.443.03,3.639,3.639,0,0,0,1.561-.353,5.025,5.025,0,0,1-4.064,1.681A4.241,4.241,0,0,1,3.8,12.589,5.322,5.322,0,0,1,1.012,9.408,7.283,7.283,0,0,1,.873,8,7.132,7.132,0,0,1,2.854,3.074L2.735,3.3m.713,10.086a5.263,5.263,0,0,0,2.024.457.335.335,0,0,0,.052,0l.007,0A5.7,5.7,0,0,0,10.651,11.3a6.42,6.42,0,0,0,.932-2.54V8.749A3.849,3.849,0,0,0,11.66,8a3.66,3.66,0,0,0-.38-1.623,5.2,5.2,0,0,1,1.712,3.092A5.627,5.627,0,0,1,12.8,11.69a4.9,4.9,0,0,1-3.31,3.281,7.1,7.1,0,0,1-6.276-1.693c.077.037.154.074.231.109m10.191-1.449h0a6.472,6.472,0,0,0,.214-2.625,5.835,5.835,0,0,0-2.983-4.26A5.718,5.718,0,0,0,8.6,4.4a3.58,3.58,0,0,0-.589-.053,3.651,3.651,0,0,0-1.288.239,7.2,7.2,0,0,1,.412-.7,6.212,6.212,0,0,1,3.408-2.548A7.119,7.119,0,0,1,13.353,12.7a5.912,5.912,0,0,0,.286-.763" transform="translate(0 0)"/>
    </g>
    <text id="잇올_스파르타_고시관" data-name="잇올 스파르타 고시관" class="cls-3" transform="translate(196 244)"><tspan x="0" y="0">잇올 스파르타 고시관</tspan></text>
  </g>
</svg>
