<svg xmlns="http://www.w3.org/2000/svg" width="63" height="18" viewBox="0 0 63 18">
  <g id="그룹_914" data-name="그룹 914" transform="translate(-175 -262.002)">
    <text id="잇올_랩" data-name="잇올 랩" transform="translate(196 276.002)" fill="#333" font-size="14" font-family="SpoqaR"><tspan x="0" y="0">잇올 랩</tspan></text>
    <g id="그룹_906" data-name="그룹 906" transform="translate(-575.271 -372.447)">
      <path id="패스_4628" data-name="패스 4628" d="M752.468,640.784h0a6.013,6.013,0,0,0-.168,5.141,6.435,6.435,0,0,0,3.392,3.519,5.925,5.925,0,0,0,2.1.492,3.944,3.944,0,0,0,.489.033,4,4,0,0,0,1.991-.533,5.577,5.577,0,0,1-4.779,2.143,4.77,4.77,0,0,1-1.924-.431,6.013,6.013,0,0,1-3.148-3.591,8.171,8.171,0,0,1-.153-1.578,8.007,8.007,0,0,1,2.589-5.892,7.764,7.764,0,0,0-.392.7" transform="translate(0 -2.53)" fill="#006087"/>
      <path id="패스_4629" data-name="패스 4629" d="M772.2,648.434a6.73,6.73,0,0,0-1.106-5.954,6.019,6.019,0,0,0-1.942-1.631,6.286,6.286,0,0,0-2.51-.719,3.9,3.9,0,0,0-.64-.059,3.949,3.949,0,0,0-1.575.329,7.978,7.978,0,0,1,.543-.943,6.976,6.976,0,0,1,3.851-2.87,8,8,0,0,1,2.847,13.113,6.4,6.4,0,0,0,.532-1.267" transform="translate(-7.718 -0.622)" fill="#006087"/>
      <path id="패스_4630" data-name="패스 4630" d="M760.972,658.562a8.007,8.007,0,0,1-5.745-2.442,6.038,6.038,0,0,0,.7.375,5.762,5.762,0,0,0,2.228.5c.015,0,.041,0,.066,0a6.279,6.279,0,0,0,5.64-2.8,6.964,6.964,0,0,0,1.025-2.806,3.765,3.765,0,0,0,.09-.834,3.967,3.967,0,0,0-.579-2.067c.071.12.3.232.4.329a5.258,5.258,0,0,1,.421.428,5.606,5.606,0,0,1,.785,1.167,5.675,5.675,0,0,1-2.314,7.516,6.987,6.987,0,0,1-1.047.454,7.928,7.928,0,0,1-1.674.178" transform="translate(-2.702 -7.111)" fill="#006087"/>
      <path id="패스_4631" data-name="패스 4631" d="M759.4,638.372a8.69,8.69,0,0,0-1.086,2.241,3.963,3.963,0,0,0-1.183,2.831,4.006,4.006,0,0,0,.535,1.988,5.9,5.9,0,0,1-1.759-2.367,5.218,5.218,0,0,1,.153-4.445,5.7,5.7,0,0,1,3.2-2.954,7.968,7.968,0,0,1,3.329-.082,7.942,7.942,0,0,0-3.191,2.788" transform="translate(-2.839)" fill="#006087"/>
    </g>
  </g>
</svg>
