<svg xmlns="http://www.w3.org/2000/svg" xmlns:xlink="http://www.w3.org/1999/xlink" width="74.107" height="72.039" viewBox="0 0 74.107 72.039">
  <defs>
    <clipPath id="clip-path">
      <path id="패스_3527" data-name="패스 3527" d="M0-52.68H74.107V19.359H0Z" fill="#c2c2c2"/>
    </clipPath>
  </defs>
  <g id="그룹_900" data-name="그룹 900" transform="translate(-354.043 -81.64)">
    <g id="그룹_899" data-name="그룹 899" transform="translate(354.043 134.32)" clip-path="url(#clip-path)">
      <g id="그룹_897" data-name="그룹 897" transform="translate(0.353 -52.327)">
        <path id="패스_3525" data-name="패스 3525" d="M5.311,16.617a18.283,18.283,0,0,0,1.924,1.919,6.3,6.3,0,0,0,1.006.83,18.013,18.013,0,0,0,9.542,3.945c.509.042.982.064,1.466.064h6c7.092,0,10.729-2.2,14.408-8.715.481-.792.909-1.563,1.311-2.347L52.883-11.061l2.605-4.412a5.106,5.106,0,0,0,.537-3.958,5.1,5.1,0,0,0-2.463-3.151c-2.587-1.434-5.2.321-6.532,2.575l-4.931,9.3a1.345,1.345,0,0,1-1.34.723,1.619,1.619,0,0,1-1.037-.517,1.464,1.464,0,0,1-.387-1.035L42.113-33.8a5.333,5.333,0,0,0-4.191-6.1,5.1,5.1,0,0,0-3.892.923,5.094,5.094,0,0,0-2.05,3.426l-3.207,23.31a1.54,1.54,0,0,1-1.455,1.266.221.221,0,0,1-.044,0,1.537,1.537,0,0,1-1.41-1.395l-1-24.9a5.35,5.35,0,0,0-4.719-5.19,5.213,5.213,0,0,0-3.988,1.421,5.135,5.135,0,0,0-1.571,3.907l1.071,24.985a1.482,1.482,0,0,1-1.25,1.481,1.461,1.461,0,0,1-1.579-1.109L8.159-30.693A5.318,5.318,0,0,0,2-34.78a5.109,5.109,0,0,0-3.263,2.307,5.1,5.1,0,0,0-.629,3.948L3.972-4.737a1.562,1.562,0,0,1-.7,1.633A1.567,1.567,0,0,1,1.5-3.339L-1.761-6.6a5.939,5.939,0,0,0-7.754-.674A5.661,5.661,0,0,0-11.7-3.117a5.721,5.721,0,0,0,1.659,4.376L5.2,16.5c.037.037.072.078.107.118m19.935,9.5h-6c-.559,0-1.113-.026-1.661-.072A20.592,20.592,0,0,1,6.644,21.59a7.667,7.667,0,0,1-1.2-.975,16.183,16.183,0,0,1-2.187-2.189L-11.977,3.2a8.465,8.465,0,0,1-2.46-6.474,8.487,8.487,0,0,1,3.226-6.151A8.6,8.6,0,0,1,.177-8.54l.045.045L-4.554-27.87a7.83,7.83,0,0,1,.96-6.051,7.821,7.821,0,0,1,5.005-3.535,8.092,8.092,0,0,1,9.408,6.107l1.534,6.212-.511-11.881a7.9,7.9,0,0,1,2.408-6,7.947,7.947,0,0,1,6.1-2.176,8.021,8.021,0,0,1,7.248,7.81l.42,10.493,1.244-9.042a7.826,7.826,0,0,1,3.145-5.259,7.8,7.8,0,0,1,5.964-1.415A8.083,8.083,0,0,1,44.83-33.44L42.915-18.1l1.724-3.252c2.416-4.092,6.728-5.593,10.256-3.627a7.822,7.822,0,0,1,3.777,4.829,7.821,7.821,0,0,1-.825,6.068L55.284-9.742,43.406,13.56c-.433.848-.894,1.678-1.389,2.486-4.135,7.331-8.688,10.069-16.771,10.069" transform="translate(14.452 45.217)" fill="#c2c2c2"/>
      </g>
      <g id="그룹_898" data-name="그룹 898" transform="translate(0 -52.679)">
        <path id="패스_3526" data-name="패스 3526" d="M2.333,10.079A5.1,5.1,0,0,0-.84,11.144a5.316,5.316,0,0,0-2.05,3.9,5.371,5.371,0,0,0,1.556,4.105L13.91,34.393c.044.044.085.09.124.137l.008.01a17.943,17.943,0,0,0,1.882,1.875,6.071,6.071,0,0,0,.971.8A17.818,17.818,0,0,0,26.264,41.1c.516.044.972.063,1.443.063h6c6.94,0,10.5-2.152,14.1-8.534.468-.769.893-1.53,1.3-2.336L61.025,6.921,63.64,2.492a4.754,4.754,0,0,0,.5-3.688,4.752,4.752,0,0,0-2.293-2.933c-2.388-1.326-4.815.341-6.057,2.446L50.868,7.6a1.7,1.7,0,0,1-1.682.908A1.941,1.941,0,0,1,47.9,7.864a1.806,1.806,0,0,1-.462-1.3L50.22-15.7a4.988,4.988,0,0,0-3.9-5.711,4.758,4.758,0,0,0-3.625.86,4.749,4.749,0,0,0-1.909,3.19L37.578,5.948a1.9,1.9,0,0,1-1.805,1.57l-.1-.005a1.88,1.88,0,0,1-1.709-1.729l-1.005-24.9a5,5,0,0,0-4.392-4.853,4.854,4.854,0,0,0-3.715,1.325A4.776,4.776,0,0,0,23.392-19L24.463,5.98a1.786,1.786,0,0,1-3.527.464l-4.664-18.91a4.992,4.992,0,0,0-5.743-3.826,4.75,4.75,0,0,0-3.037,2.148A4.758,4.758,0,0,0,6.9-10.466l5.868,23.787a1.912,1.912,0,0,1-.863,2.024,1.91,1.91,0,0,1-2.2-.293L6.446,11.791a5.846,5.846,0,0,0-4.113-1.712M33.7,41.872h-6c-.483,0-.974-.022-1.5-.066a18.478,18.478,0,0,1-9.727-4.018,6.533,6.533,0,0,1-1.039-.859,18.707,18.707,0,0,1-1.945-1.94c-.029-.033-.057-.067-.088-.1L-1.833,19.651a6.067,6.067,0,0,1-1.761-4.645A6.009,6.009,0,0,1-1.277,10.59a6.3,6.3,0,0,1,8.223.7l3.263,3.263a1.228,1.228,0,0,0,1.351.178,1.209,1.209,0,0,0,.528-1.242L6.219-10.3a5.46,5.46,0,0,1,.671-4.219,5.457,5.457,0,0,1,3.487-2.467,5.7,5.7,0,0,1,6.58,4.347L21.623,6.283a1.114,1.114,0,0,0,1.184.844,1.13,1.13,0,0,0,.949-1.117L22.685-18.975a5.486,5.486,0,0,1,1.681-4.178A5.529,5.529,0,0,1,28.62-24.67a5.707,5.707,0,0,1,5.049,5.527l1.005,24.9a1.185,1.185,0,0,0,1.068,1.056h0a1.2,1.2,0,0,0,1.134-.959l3.207-23.31a5.438,5.438,0,0,1,2.192-3.662,5.448,5.448,0,0,1,4.157-.987,5.7,5.7,0,0,1,4.484,6.5L48.141,6.652a1.14,1.14,0,0,0,.313.771,1.267,1.267,0,0,0,.8.387,1.017,1.017,0,0,0,.993-.536l4.931-9.3c1.419-2.405,4.215-4.269,7.017-2.717a5.458,5.458,0,0,1,2.632,3.367,5.456,5.456,0,0,1-.574,4.23L61.644,7.262,49.735,30.617c-.42.82-.853,1.6-1.324,2.37-3.748,6.639-7.462,8.885-14.71,8.885M2.33,7.321A7.816,7.816,0,0,0-2.535,8.992a8.092,8.092,0,0,0-.736,12.1L11.961,36.32a16.54,16.54,0,0,0,2.17,2.174,7.293,7.293,0,0,0,1.161.944,20.281,20.281,0,0,0,10.776,4.4c.583.049,1.117.072,1.638.072h6c7.934,0,12.4-2.68,16.463-9.89.477-.779.941-1.608,1.383-2.474l11.879-23.3L66,3.885a7.466,7.466,0,0,0,.788-5.8,7.468,7.468,0,0,0-3.607-4.613c-3.364-1.873-7.477-.4-9.78,3.5L50.784,1.911,52.937-15.34a7.73,7.73,0,0,0-6.165-8.775,7.436,7.436,0,0,0-5.7,1.352,7.467,7.467,0,0,0-3,5.024L36.826-8.7l-.7-.034L35.7-19.225A7.666,7.666,0,0,0,28.783-26.7a7.674,7.674,0,0,0-5.831,2.079,7.551,7.551,0,0,0-2.3,5.73l.511,11.879-.695.1-1.534-6.211a7.723,7.723,0,0,0-8.988-5.849,7.473,7.473,0,0,0-4.782,3.378A7.487,7.487,0,0,0,4.245-9.81l5.082,20.6-.9-.9a8.649,8.649,0,0,0-6.1-2.578M33.7,44.612h-6c-.54,0-1.094-.025-1.692-.074a20.941,20.941,0,0,1-11.131-4.526,7.643,7.643,0,0,1-1.235-1,16.671,16.671,0,0,1-2.221-2.228L-3.77,21.589a8.8,8.8,0,0,1,.8-13.151,8.9,8.9,0,0,1,11.036.185L3.559-9.642a8.182,8.182,0,0,1,1-6.322,8.175,8.175,0,0,1,5.229-3.695,8.427,8.427,0,0,1,9.827,6.368l.686,2.779-.36-8.349a8.259,8.259,0,0,1,2.518-6.267A8.247,8.247,0,0,1,28.837-27.4a8.373,8.373,0,0,1,7.573,8.147l.26,6.512.7-5.1a8.176,8.176,0,0,1,3.286-5.5,8.148,8.148,0,0,1,6.232-1.478,8.436,8.436,0,0,1,6.746,9.564L51.96-1.816l.825-1.553C55.3-7.63,59.814-9.208,63.524-7.138a8.163,8.163,0,0,1,3.945,5.043,8.168,8.168,0,0,1-.86,6.34L64.045,8.581,52.176,31.864c-.45.882-.922,1.726-1.4,2.511-4.209,7.46-8.838,10.237-17.073,10.237" transform="translate(6.348 27.426)" fill="#c2c2c2"/>
      </g>
    </g>
  </g>
</svg>
