<svg xmlns="http://www.w3.org/2000/svg" width="52.308" height="73.232" viewBox="0 0 52.308 73.232">
  <g id="그룹_893" data-name="그룹 893" transform="translate(-140.434 -430.111)">
    <path id="패스_3520" data-name="패스 3520" d="M161.632,503.343c-6.177,0-11.661-3.522-15.107-9.727h0c-8.2-14.769-6-33.333-5.27-39.433l.17-1.224c.985-5.4,3.979-21.843,25.815-22.832a20.865,20.865,0,0,1,2.451.049,19.94,19.94,0,0,1,3.044.447c9.724,2.231,20.088,9.317,20.006,22.507.007.324.072,9.445-8.855,19.652a19.211,19.211,0,0,0-4.019,6.47,15.292,15.292,0,0,0-.688,5.285,16.506,16.506,0,0,1-.511,6.124,17.647,17.647,0,0,1-6.965,9.559,17.827,17.827,0,0,1-9.586,3.113C161.955,503.34,161.792,503.343,161.632,503.343Zm-10.9-12.068c2.674,4.808,6.729,7.355,11.236,7.242a13.016,13.016,0,0,0,7-2.27,12.843,12.843,0,0,0,5.078-6.975,11.932,11.932,0,0,0,.32-4.373,20.161,20.161,0,0,1,.923-7.17,23.707,23.707,0,0,1,4.965-8.119c7.618-8.711,7.661-16.388,7.661-16.464.079-13.059-12.428-16.944-16.264-17.824a17.261,17.261,0,0,0-4.2-.38c-18,.816-20.307,13.476-21.29,18.882l-.125.929c-.681,5.717-2.752,23.115,4.692,36.522Z" transform="translate(0 0)" fill="#c2c2c2"/>
    <path id="패스_3521" data-name="패스 3521" d="M152.928,477.249a2.412,2.412,0,0,1-2.3-1.681c-4.908-15.473.3-23.8,1.312-25.213,2.393-4.3,9.313-11.249,19.017-7.692a11.122,11.122,0,0,1,5.691,4.525,10.367,10.367,0,0,1,.43,9.944,2.411,2.411,0,1,1-4.256-2.266,5.616,5.616,0,0,0-.286-5.156,6.289,6.289,0,0,0-3.237-2.521c-8.314-3.039-13.009,5.263-13.2,5.618l-.235.352c-.194.256-5.093,6.9-.636,20.949a2.411,2.411,0,0,1-2.3,3.141Z" transform="translate(3.189 4.544)" fill="#c2c2c2"/>
    <path id="패스_3522" data-name="패스 3522" d="M152.052,460.923a2.41,2.41,0,0,1-1-4.607c.8-.365,4.94-2.212,7.543-1.992a2.408,2.408,0,0,1,2.234,2.572,2.382,2.382,0,0,1-2.574,2.237,17.154,17.154,0,0,0-5.22,1.576A2.394,2.394,0,0,1,152.052,460.923Z" transform="translate(3.614 9.501)" fill="#c2c2c2"/>
  </g>
</svg>
