<svg id="그룹_894" data-name="그룹 894" xmlns="http://www.w3.org/2000/svg" width="62.221" height="68.541" viewBox="0 0 62.221 68.541">
  <path id="패스_3523" data-name="패스 3523" d="M131.294,207.08a2.157,2.157,0,1,1,0-4.313,10.178,10.178,0,0,0,0-20.356h-1.831l-4.851-29.575c-1.1-6.24-4.819-9.984-9.938-9.984-5.9,0-9.237,4.99-9.932,9.935l-4.856,29.623H98.055a10.178,10.178,0,1,0,0,20.356,2.157,2.157,0,0,1,0,4.313A14.492,14.492,0,0,1,96.2,178.215l4.271-26.076c1.121-7.988,6.963-13.6,14.2-13.6,7.271,0,12.709,5.2,14.189,13.571l4.281,26.1a14.492,14.492,0,0,1-1.851,28.865Z" transform="translate(-83.562 -138.539)" fill="#c2c2c2"/>
</svg>
