<svg xmlns="http://www.w3.org/2000/svg" width="70" height="51.262" viewBox="0 0 70 51.262">
  <path id="패스_3518" data-name="패스 3518" d="M503.824,349.017a2.911,2.911,0,0,0-3.445,2.209c-3.126,14.312-15.164,24.307-29.276,24.307s-26.157-9.994-29.279-24.3a2.895,2.895,0,0,0-3.442-2.214,2.89,2.89,0,0,0-2.212,3.442,37.148,37.148,0,0,0,11.509,19.883l-6.892,12.539a2.9,2.9,0,0,0,5.074,2.792l6.488-11.8a34.919,34.919,0,0,0,15.862,5.327v16.118a2.894,2.894,0,0,0,5.788,0V381.2a34.9,34.9,0,0,0,15.86-5.329l6.486,11.805a2.895,2.895,0,1,0,5.072-2.792l-6.889-12.539a37.153,37.153,0,0,0,11.508-19.88A2.9,2.9,0,0,0,503.824,349.017Z" transform="translate(-436.101 -348.948)" fill="#c2c2c2"/>
</svg>
